<?xml version="1.0" standalone="no"?>
<!DOCTYPE svg PUBLIC "-//W3C//DTD SVG 20010904//EN"
 "http://www.w3.org/TR/2001/REC-SVG-20010904/DTD/svg10.dtd">
<svg version="1.0" xmlns="http://www.w3.org/2000/svg"
 width="500.000000pt" height="500.000000pt" viewBox="0 0 500.000000 500.000000"
 preserveAspectRatio="xMidYMid meet">

<g transform="translate(0.000000,500.000000) scale(0.100000,-0.100000)"
fill="#000000" stroke="none">
<path d="M2360 4983 c-320 -17 -681 -117 -960 -265 -208 -110 -374 -232 -548
-402 -241 -236 -402 -468 -539 -781 -90 -204 -167 -525 -181 -755 l-7 -105
-38 3 -37 4 0 -154 c0 -171 13 -281 36 -316 9 -13 29 -31 45 -40 20 -12 32
-29 40 -57 127 -500 304 -838 615 -1175 73 -78 234 -220 251 -220 6 0 61 59
120 132 59 72 142 172 183 221 41 49 101 121 133 160 l58 70 -38 30 c-126 100
-278 279 -373 438 -94 158 -182 405 -205 576 l-7 52 44 18 c60 24 183 89 248
132 108 71 252 227 303 327 10 19 27 34 43 38 22 6 36 29 90 142 35 74 64 143
64 152 0 39 102 151 193 214 47 32 61 37 72 28 12 -10 46 -1 164 40 138 48
150 55 156 80 5 24 12 28 58 34 83 9 255 7 324 -5 58 -10 64 -14 69 -38 5 -24
22 -35 144 -89 76 -34 143 -62 148 -62 5 0 15 7 22 15 15 19 27 12 112 -62 93
-81 150 -155 143 -185 -7 -29 88 -287 112 -305 9 -7 31 -13 48 -13 28 0 37 -8
80 -70 62 -91 150 -178 233 -231 37 -23 85 -54 107 -69 59 -40 94 -56 153 -70
l54 -12 -7 -57 c-10 -82 -59 -265 -95 -357 -95 -239 -272 -485 -460 -640 l-69
-57 73 -86 c86 -102 238 -287 319 -389 61 -76 96 -112 109 -112 20 0 227 191
308 284 106 121 129 152 220 295 154 242 284 552 331 790 10 52 17 66 46 88
19 15 41 39 48 54 20 38 35 180 35 333 l0 128 -34 -6 c-40 -8 -34 -28 -56 189
-41 397 -199 811 -435 1135 -161 223 -404 455 -630 602 -433 282 -913 410
-1435 381z m278 -323 c22 0 22 -2 16 -79 -8 -90 -3 -96 80 -107 39 -6 46 -4
59 17 9 13 19 50 22 81 4 32 13 62 19 67 10 9 80 0 91 -11 6 -6 -23 -146 -35
-167 -15 -28 -48 -35 -145 -28 -90 6 -160 29 -175 58 -11 20 -14 138 -4 164 5
11 14 15 28 11 11 -3 31 -6 44 -6z m-155 -20 c38 -30 52 -80 33 -123 -22 -53
-48 -64 -175 -76 -63 -6 -116 -9 -118 -7 -4 4 -32 181 -33 203 0 15 32 20 161
22 93 1 110 -2 132 -19z m-333 -19 c0 -13 -9 -21 -27 -25 -16 -3 -54 -10 -86
-16 -56 -11 -97 -37 -97 -61 0 -6 8 -8 18 -5 60 17 182 38 196 33 9 -4 16 -12
16 -20 0 -9 -30 -19 -93 -31 -107 -20 -130 -30 -107 -47 14 -10 75 -7 168 7
37 6 42 4 42 -13 0 -16 -13 -22 -88 -36 -136 -26 -167 -24 -208 17 -44 44 -45
82 -3 131 31 35 67 50 179 73 73 16 90 14 90 -7z m1208 -129 c68 -33 85 -53
62 -67 -6 -3 -40 6 -76 20 -78 31 -113 30 -133 -6 -27 -48 -9 -77 69 -111 65
-29 84 -48 61 -62 -5 -4 -53 13 -106 35 -110 48 -131 73 -122 142 7 48 32 76
78 87 49 10 84 2 167 -38z m-1730 -23 c2 -9 -19 -25 -53 -42 l-56 -28 40 -75
c23 -42 41 -79 41 -83 0 -8 -44 -31 -59 -31 -5 0 -28 33 -51 73 -24 39 -44 73
-45 75 -2 2 -26 -11 -55 -29 -46 -28 -53 -30 -67 -17 -13 14 -11 18 23 38 71
45 259 139 269 136 6 -1 11 -9 13 -17z m1948 -94 c41 -17 174 -105 174 -114 0
-4 -5 -12 -11 -18 -8 -8 -31 2 -86 38 -69 45 -118 60 -136 42 -4 -3 34 -32 83
-64 82 -53 105 -79 81 -93 -4 -3 -48 21 -97 53 -89 60 -122 66 -91 17 10 -14
44 -43 76 -66 68 -46 73 -51 61 -70 -7 -11 -25 -3 -87 38 -114 75 -138 103
-138 159 0 37 5 49 28 69 33 28 89 32 143 9z m-2232 -101 c22 -21 20 -46 -4
-77 l-20 -26 47 -6 c77 -10 80 -13 42 -41 -31 -23 -40 -24 -97 -18 -57 6 -65
4 -97 -21 l-36 -26 26 -30 c31 -38 31 -40 0 -69 l-26 -24 -74 74 c-41 41 -75
80 -75 86 0 11 127 123 195 172 36 25 97 29 119 6z m2494 -76 c41 -32 42 -34
44 -98 1 -36 2 -86 1 -112 -1 -27 1 -48 5 -48 3 0 30 23 59 52 l53 52 30 -29
c16 -16 30 -32 30 -35 0 -4 -37 -40 -82 -80 l-82 -73 -38 44 -38 44 0 110 -1
110 -53 -59 c-46 -50 -56 -57 -73 -48 -47 26 -45 34 22 120 36 45 69 82 73 82
5 0 27 -14 50 -32z m-1019 -28 c595 -127 1066 -569 1225 -1150 13 -49 21 -90
16 -90 -11 0 -125 77 -140 95 -10 13 -10 19 3 33 14 16 10 30 -46 167 l-62
150 -43 3 c-37 3 -45 8 -74 50 -101 148 -253 303 -369 374 -65 40 -69 45 -69
79 0 20 -6 41 -12 46 -16 12 -280 123 -292 123 -6 0 -20 -9 -32 -21 l-22 -21
-94 23 c-82 21 -117 23 -303 24 -137 0 -237 -5 -288 -14 l-78 -14 -27 25 -27
26 -150 -57 -150 -57 -3 -36 c-3 -35 -12 -44 -135 -136 -155 -117 -228 -188
-294 -284 l-48 -70 -51 7 c-36 4 -54 2 -61 -7 -25 -31 -134 -288 -127 -300 4
-7 16 -23 27 -35 l19 -22 -46 -58 c-52 -64 -129 -130 -134 -114 -6 18 47 197
88 298 201 491 646 860 1161 962 150 30 147 29 349 26 146 -2 207 -7 289 -25z
m-1754 -216 c55 -9 102 -18 104 -20 3 -2 -8 -17 -23 -33 -23 -24 -34 -28 -60
-24 -30 5 -36 0 -74 -46 -37 -47 -40 -55 -30 -81 8 -25 6 -35 -12 -60 -14 -20
-26 -28 -32 -22 -5 5 -27 60 -49 121 l-39 113 30 39 c25 31 36 37 58 34 15 -2
72 -12 127 -21z m1091 -78 c24 -51 44 -98 44 -104 0 -7 -25 -24 -56 -40 -48
-24 -53 -30 -40 -41 12 -10 23 -9 62 8 54 24 64 26 64 9 -1 -12 -276 -148
-299 -148 -26 0 -7 22 39 45 28 14 50 29 50 34 0 5 3 16 6 25 5 12 -11 8 -61
-15 -37 -16 -69 -29 -70 -27 -12 11 -94 202 -90 207 7 7 287 139 298 140 5 1
28 -41 53 -93z m1987 2 c89 -120 149 -221 134 -230 -20 -13 -24 -10 -57 45
-18 28 -34 54 -36 56 -2 3 -38 -19 -78 -47 l-75 -52 -20 29 c-12 16 -21 33
-21 38 0 4 21 23 48 41 26 18 58 41 71 52 l23 20 -42 50 c-40 47 -45 70 -15
70 7 0 38 -33 68 -72z m-1128 -8 l42 0 52 -86 c28 -47 51 -87 51 -90 0 -2 -47
-4 -104 -4 l-104 0 -51 91 c-28 51 -51 94 -51 97 0 3 28 2 61 -2 34 -3 81 -6
104 -6z m-103 -140 l37 -60 70 0 71 0 -28 -45 c-24 -40 -31 -45 -64 -45 -72 0
-132 40 -169 113 -20 38 -20 38 1 67 12 17 27 30 33 30 7 0 29 -27 49 -60z
m-1982 -93 c0 -6 -8 -22 -18 -34 l-17 -23 -64 41 c-35 22 -65 38 -67 37 -2 -2
17 -40 42 -83 l46 -80 -21 -42 -20 -41 -90 -12 c-50 -7 -91 -16 -91 -19 0 -3
26 -16 58 -29 84 -33 84 -33 71 -70 -6 -18 -17 -32 -24 -32 -14 0 -181 63
-190 72 -3 3 5 32 17 66 l21 61 62 10 c34 6 76 11 93 11 17 0 33 4 36 8 3 5
-15 42 -39 83 -25 41 -45 80 -45 88 0 7 14 38 31 67 l30 54 90 -60 c49 -33 89
-66 89 -73z m2185 -14 c-13 -27 -27 -56 -29 -65 -7 -24 -46 -24 -46 0 0 10 8
25 18 33 9 9 25 30 34 48 9 17 24 31 33 31 12 0 11 -9 -10 -47z m1170 -39 c42
-20 76 -68 114 -164 44 -111 47 -130 24 -130 -15 0 -27 19 -52 86 -18 47 -41
94 -52 105 -21 21 -54 26 -46 7 24 -56 76 -187 81 -204 5 -16 2 -23 -12 -26
-16 -5 -26 12 -63 104 -25 60 -49 110 -54 111 -23 4 -15 -67 16 -149 28 -72
31 -87 19 -94 -20 -12 -22 -9 -65 100 -58 147 -57 222 4 255 34 18 46 18 86
-1z m-2883 -229 c77 -32 122 -119 101 -197 -11 -40 -1 -51 17 -18 26 48 91 93
75 53 -15 -42 -128 -233 -136 -233 -12 0 -2 65 13 97 6 13 8 26 3 30 -4 5 -10
2 -12 -5 -8 -20 -61 -44 -69 -31 -4 7 1 16 11 21 33 19 54 47 65 90 10 36 9
49 -7 87 -22 54 -71 91 -119 91 -24 0 -34 5 -34 15 0 20 46 20 92 0z m12 -54
c37 -32 59 -124 38 -159 -9 -13 -72 -6 -72 9 0 5 -7 6 -15 3 -8 -4 -15 -13
-15 -20 0 -8 -7 -17 -15 -20 -8 -4 -15 -15 -15 -25 0 -32 -28 -33 -71 -5 -43
29 -59 59 -59 109 0 66 25 104 37 57 3 -11 11 -20 18 -20 7 0 18 -7 25 -15 18
-21 30 -9 30 31 0 27 4 34 20 34 13 0 20 7 20 18 0 10 3 22 7 25 9 10 44 -2
67 -22z m2196 20 c0 -5 -36 -32 -80 -60 -44 -29 -80 -54 -80 -57 0 -3 13 -24
29 -47 16 -23 37 -58 48 -77 11 -19 35 -61 52 -93 l33 -57 85 46 c56 31 88 43
94 37 7 -7 -24 -29 -90 -67 -56 -31 -103 -56 -105 -56 -3 0 -10 17 -17 38 -18
56 -46 109 -105 199 -30 44 -54 84 -54 87 0 9 163 115 178 115 6 1 12 -3 12
-8z m52 -38 c58 -67 49 -97 -47 -152 -42 -24 -78 -41 -79 -40 -2 2 -11 20 -21
39 -10 19 -24 43 -33 53 -8 9 -13 19 -11 21 14 13 156 96 165 96 6 0 18 -8 26
-17z m-3117 -43 c3 -5 -6 -56 -20 -113 -26 -104 -34 -172 -21 -184 15 -15 34
27 55 119 24 105 54 161 89 166 62 9 70 -43 37 -221 -15 -78 -29 -152 -31
-164 -3 -15 -11 -23 -25 -23 -17 0 -20 5 -16 28 29 159 40 253 30 263 -19 19
-40 -29 -62 -141 -22 -112 -43 -153 -83 -158 -26 -3 -43 20 -51 73 -10 62 55
365 78 365 8 0 17 -4 20 -10z m3947 -120 c35 -141 44 -245 26 -279 -31 -58
-69 -53 -102 13 l-19 38 -31 -56 c-17 -31 -34 -56 -37 -56 -4 0 -9 24 -11 53
-4 44 0 61 28 112 31 57 32 63 22 113 -12 57 -10 57 -80 36 -13 -4 -19 4 -25
33 -4 21 -8 42 -8 46 0 11 164 66 190 64 16 -2 24 -20 47 -117z m-737 -5 c19
-20 35 -42 35 -50 0 -12 -150 -105 -170 -105 -13 0 -75 103 -65 107 6 2 37 21
70 43 33 21 68 39 77 39 10 1 33 -15 53 -34z m-2881 -1523 l39 -24 82 31 c45
17 86 31 92 31 6 0 4 -36 -4 -96 l-14 -95 67 -82 67 -82 -49 -7 c-27 -3 -70
-7 -96 -7 l-47 -1 -48 -85 c-26 -46 -50 -85 -53 -85 -3 0 -26 42 -52 93 l-46
92 -68 19 c-132 37 -127 27 -51 104 l67 68 -10 74 c-5 41 -10 88 -10 103 l0
28 48 -28 c26 -15 65 -38 86 -51z m3136 -16 l80 -45 95 39 c52 21 95 36 95 32
0 -4 -9 -44 -20 -90 -11 -46 -20 -90 -20 -99 0 -9 25 -47 56 -85 37 -45 51
-70 42 -73 -7 -3 -51 -11 -98 -18 l-85 -13 -55 -81 c-30 -45 -59 -81 -65 -79
-5 1 -24 38 -41 80 -17 43 -37 82 -45 86 -8 4 -49 16 -91 25 -43 9 -78 21 -78
25 0 5 32 37 70 73 l70 65 0 101 c0 55 2 101 5 101 3 0 41 -20 85 -44z"/>
<path d="M2284 4583 c3 -21 6 -53 6 -72 l0 -34 61 7 c74 7 89 18 89 63 0 63
-12 73 -92 73 l-71 0 7 -37z"/>
<path d="M1209 4203 c-14 -10 -40 -30 -58 -45 -27 -23 -30 -31 -21 -48 6 -11
16 -20 23 -20 19 0 119 98 115 112 -7 20 -30 20 -59 1z"/>
<path d="M936 3878 c14 -47 19 -50 43 -24 28 29 20 46 -20 46 -27 0 -30 -3
-23 -22z"/>
<path d="M1958 3873 c-65 -31 -118 -59 -118 -63 0 -4 13 -37 30 -73 l30 -66
117 55 c65 31 124 58 131 61 15 6 17 -1 -18 77 -17 36 -36 66 -43 66 -6 -1
-65 -26 -129 -57z"/>
<path d="M1376 3231 c-3 -5 4 -11 16 -14 25 -7 33 -3 23 12 -8 13 -32 14 -39
2z"/>
<path d="M1230 3160 c0 -5 4 -10 9 -10 5 0 18 -3 28 -7 16 -6 16 -5 4 10 -15
19 -41 23 -41 7z"/>
<path d="M4430 3133 c-8 -3 -20 -6 -26 -8 -9 -3 -8 -22 2 -72 18 -86 33 -123
50 -123 24 0 27 48 8 129 -15 59 -23 77 -34 74z"/>
<path d="M2344 3316 c-50 -43 -90 -221 -74 -323 14 -84 69 -133 149 -133 55 0
86 16 116 61 32 49 32 55 -5 74 -30 16 -32 15 -72 -14 -47 -35 -71 -28 -66 18
3 24 9 27 88 41 l85 15 -3 80 c-4 80 -23 137 -56 164 -9 8 -43 19 -77 26 -57
12 -62 12 -85 -9z m104 -146 c3 -33 -1 -47 -14 -57 -33 -24 -47 -16 -39 23 16
89 48 109 53 34z"/>
<path d="M1668 2683 c-51 -52 -80 -123 -79 -189 0 -72 20 -106 90 -153 57 -39
77 -64 65 -82 -9 -16 -36 -10 -71 17 -40 31 -69 28 -96 -8 l-21 -28 20 -27
c32 -43 97 -84 142 -90 97 -13 192 63 192 153 0 65 -16 88 -103 155 -77 60
-79 63 -73 97 10 67 50 70 62 5 9 -53 20 -63 71 -63 l45 0 -3 85 c-4 76 -7 87
-30 111 -24 23 -112 53 -159 54 -9 0 -32 -17 -52 -37z"/>
<path d="M3068 2695 c-40 -22 -69 -114 -83 -261 -16 -167 48 -274 165 -274 74
0 139 53 160 130 13 48 2 73 -41 95 -29 15 -30 15 -57 -14 -15 -16 -36 -42
-48 -57 -13 -18 -25 -25 -34 -19 -23 14 4 234 31 251 15 9 29 -14 29 -47 0
-36 21 -51 67 -47 l38 3 0 87 c0 77 -3 90 -22 109 -46 46 -158 70 -205 44z"/>
<path d="M2298 2665 c-49 -27 -53 -120 -10 -202 13 -24 9 -30 -53 -61 -49 -25
-96 -74 -123 -127 -39 -80 -52 -175 -52 -386 0 -262 -10 -288 -114 -289 -47 0
-49 -9 -47 -160 1 -78 5 -148 8 -156 3 -8 16 -17 29 -20 13 -3 24 -12 24 -20
0 -21 9 -18 125 36 59 28 108 50 109 50 0 0 1 -30 2 -68 0 -37 9 -103 19 -147
11 -46 18 -114 18 -159 -1 -70 1 -81 22 -102 15 -15 36 -24 54 -24 26 0 31 5
40 38 6 20 11 53 11 73 0 35 14 59 35 59 7 0 19 -27 28 -60 19 -66 50 -97 87
-85 23 7 23 9 -4 80 -9 23 -15 73 -16 118 0 69 4 88 42 174 65 155 67 187 24
527 -38 303 -37 351 3 285 11 -19 21 -40 21 -47 0 -7 16 -44 35 -83 l36 -70
-17 -79 c-13 -64 -13 -89 -4 -133 14 -68 25 -83 75 -99 l40 -13 5 -112 c4 -68
11 -118 18 -125 8 -8 12 -45 12 -100 0 -56 6 -102 15 -125 8 -19 15 -51 15
-71 0 -51 21 -165 32 -180 16 -19 46 -14 54 11 4 12 8 65 9 117 1 98 18 175
37 164 7 -4 8 -32 4 -78 -8 -94 0 -135 30 -147 13 -4 24 -13 24 -19 0 -5 16
-10 36 -10 35 0 36 1 29 28 -17 67 -17 97 0 153 17 56 17 61 1 98 -24 52 -23
104 3 139 23 33 23 27 -14 272 -15 99 -18 107 -51 136 l-36 30 22 42 c26 49
21 87 -15 126 -28 30 -64 33 -105 9 -46 -27 -56 -55 -41 -111 20 -71 19 -73
-25 -87 -22 -6 -55 -22 -72 -35 -18 -13 -35 -20 -39 -17 -4 4 -1 31 7 59 20
81 16 144 -17 258 -16 58 -40 148 -53 200 -34 142 -60 194 -114 229 -26 16
-59 34 -75 41 -39 16 -45 34 -24 73 9 18 17 55 17 84 1 44 -3 56 -28 82 -33
34 -65 39 -108 16z"/>
<path d="M2230 479 c-483 -12 -863 -48 -1385 -130 -173 -27 -218 -39 -204 -54
12 -11 102 -6 229 14 269 40 616 76 1100 113 219 16 917 17 1140 0 287 -21
403 -31 640 -58 201 -22 508 -65 583 -80 20 -4 27 -2 27 9 0 28 -30 39 -177
63 -591 98 -1268 140 -1953 123z"/>
<path d="M2175 363 c-27 -1 -142 -7 -255 -13 -548 -28 -1332 -132 -1348 -178
-6 -18 55 -15 234 13 271 42 594 75 1124 116 69 5 280 12 470 15 366 7 614 -2
1030 -37 382 -32 925 -101 973 -124 24 -12 29 -12 34 1 14 37 -8 46 -202 78
-277 47 -646 89 -925 105 -428 26 -925 37 -1135 24z"/>
<path d="M2040 240 c-407 -21 -1092 -91 -1329 -137 -75 -14 -148 -26 -163 -25
-14 1 -32 -5 -38 -13 -21 -25 13 -28 118 -11 309 51 511 74 942 111 436 37
610 45 965 45 576 0 902 -24 1555 -116 135 -19 277 -41 315 -49 39 -8 76 -15
83 -15 13 0 17 36 4 44 -15 9 -288 54 -490 81 -226 30 -565 60 -847 75 -277
15 -905 20 -1115 10z"/>
</g>
</svg>
